<svg id="Capa_1" data-name="Capa 1" xmlns="http://www.w3.org/2000/svg" viewBox="0 0 480 480"><defs><style>.cls-1{fill:#db3f3d;}.cls-2{fill:#a03939;}</style></defs><title>mars no glare</title><circle class="cls-1" cx="239.73" cy="240" r="239.73"/><path class="cls-2" d="M272.13,216c-16.28-.46-26.08,4.91-35,9.48-10,5.1-18.59,9.48-35.8,6.63a8,8,0,1,0-2.62,15.78A78,78,0,0,0,211.51,249c14.69,0,24.24-4.87,32.87-9.28,8.13-4.14,15.17-7.74,26.6-7.74.34,0,.76,0,1,0a8,8,0,0,0,.13-16Z"/><path class="cls-2" d="M333,209.71a8,8,0,0,0-11.24,1.34c-1.66,2.12-10.48,4.53-18.16,5a8,8,0,0,0,.44,16h.44c5.19-.28,22.68-1.9,29.86-11A8,8,0,0,0,333,209.71Z"/><ellipse class="cls-2" cx="118.33" cy="114.62" rx="20.9" ry="16" transform="matrix(0.54, -0.84, 0.84, 0.54, -41.9, 152.91)"/><ellipse class="cls-2" cx="68.35" cy="272.06" rx="13.01" ry="16.99" transform="translate(-55.94 20.59) rotate(-12.2)"/><path class="cls-2" d="M176,88a8.14,8.14,0,0,0,5.68-2.4A7.74,7.74,0,0,0,184,80a8.05,8.05,0,0,0-2.32-5.68,8,8,0,0,0-11.36,11.36A8.41,8.41,0,0,0,176,88Z"/><path class="cls-2" d="M362.32,186.22A8,8,0,0,0,368,199.9a8.14,8.14,0,0,0,5.68-2.4,7.74,7.74,0,0,0,2.32-5.6,8.05,8.05,0,0,0-2.32-5.68A8.38,8.38,0,0,0,362.32,186.22Z"/><path class="cls-2" d="M394.32,218.32A8,8,0,0,0,400,232a8.14,8.14,0,0,0,5.68-2.4A7.74,7.74,0,0,0,408,224a8.05,8.05,0,0,0-2.32-5.68A8.38,8.38,0,0,0,394.32,218.32Z"/><path class="cls-2" d="M194.32,322.32A8,8,0,0,0,200,336a8.14,8.14,0,0,0,5.68-2.4A7.74,7.74,0,0,0,208,328a8.05,8.05,0,0,0-2.32-5.68A8.38,8.38,0,0,0,194.32,322.32Z"/><path class="cls-2" d="M298.32,362.32A8,8,0,0,0,304,376a8.14,8.14,0,0,0,5.68-2.4A7.74,7.74,0,0,0,312,368a8.05,8.05,0,0,0-2.32-5.68A8.38,8.38,0,0,0,298.32,362.32Z"/><path class="cls-2" d="M77.54,209.54a8,8,0,1,0,5-15.2C51.27,184.07,28,171.41,15.18,157.74c-.16-.17-.39-.24-.56-.4-.5,1.34-1,2.69-1.43,4l0,.12c-1.42,4.18-2.72,8.42-3.93,12.69C24.37,187.63,47.76,199.76,77.54,209.54Z"/><path class="cls-2" d="M430.61,94.22c-18.07,8-39.59,15-64.4,20.72A8,8,0,0,0,368,130.73a7.8,7.8,0,0,0,1.79-.2c27.15-6.2,50.75-14,70.35-23Q435.59,100.71,430.61,94.22Z"/><path class="cls-2" d="M120.14,284.59a8,8,0,0,0,6.37,9.35c3.17.6,6.45,1.13,9.7,1.67.19-5.38.48-10.74,1-16,0,0,0-.06,0-.09h0c-2.55-.44-5.24-.78-7.75-1.26A8,8,0,0,0,120.14,284.59Z"/><path class="cls-2" d="M184.38,448.32l-.66.3C170,454.88,155.81,461.26,146.54,461c2,.84,4,1.62,6,2.41,1.84.71,3.66,1.46,5.52,2.13,1.7.62,3.42,1.17,5.14,1.75,2.66.89,5.33,1.75,8,2.56l2.28.66c5.47-2.2,11.1-4.76,16.82-7.36l4.38-2h0C191.12,457,187.7,452.71,184.38,448.32Z"/><path class="cls-2" d="M136.16,295.65c17.14,2.88,35.3,5,53.94,6.37a.78.78,0,0,1,.17.07l43.79,9.68a5.33,5.33,0,0,1,1.5,9.57A8,8,0,0,0,240,336c49.87,0,97.57-5.33,137.94-15.42a8,8,0,0,0,.18-15.47l-16.28-4.49,15.65-11.74c.11-.08.16-.21.26-.29,8.65-2.16,17-4.51,24.74-7.06a8,8,0,1,0-5-15.2,368.09,368.09,0,0,1-39.14,10.33C322.79,284.08,281.86,288,240,288a611.51,611.51,0,0,1-102.77-8.38v-.05"/><path class="cls-2" d="M184.38,448.32c3.32,4.4,6.74,8.71,10.35,12.87,15.65-7.11,31.49-13.88,44.93-13.2,34.07,1.46,51.64-8.65,52.37-9.08a8,8,0,0,0-8-13.85c-.14.08-14.86,8.21-43.68,6.95-18.33-.71-37.44,7.87-56,16.33A238.74,238.74,0,0,1,136,304c0-2.8.07-5.58.16-8.35"/><rect class="cls-1" x="124.45" y="305.73" width="63.55" height="136.84"/><ellipse class="cls-1" cx="136.63" cy="300.77" rx="4.97" ry="9.12" transform="translate(-182.94 384.46) rotate(-80.24)"/><ellipse class="cls-1" cx="181.65" cy="443.79" rx="9.12" ry="4.97" transform="translate(-131.04 80.23) rotate(-18.44)"/></svg>